<svg xmlns="http://www.w3.org/2000/svg" width="199" height="48" fill-rule="evenodd"><path d="M189.584 12.458h-3.465v21.83h3.465v-7.566c0-.462.058-.904.173-1.328s.304-.8.563-1.126a2.8 2.8 0 0 1 .982-.78c.395-.192.88-.29 1.46-.29.596 0 1.068.14 1.414.42a2.49 2.49 0 0 1 .766 1.039 4.66 4.66 0 0 1 .303 1.329l.058 1.285v7.017h3.465v-8.75c0-.712-.087-1.395-.26-2.05a4.6 4.6 0 0 0-.866-1.733c-.405-.5-.93-.904-1.574-1.213s-1.43-.46-2.354-.46c-1.078 0-1.96.235-2.642.707s-1.16.996-1.43 1.574h-.058v-9.905zm-12.36 10.916v6.352c0 .81.063 1.52.188 2.137s.356 1.13.693 1.545.8.722 1.386.924 1.343.303 2.267.303a11.12 11.12 0 0 0 1.4-.101c.53-.067.977-.187 1.343-.36v-2.916c-.212.154-.5.265-.866.332a5.65 5.65 0 0 1-1.011.101c-.77 0-1.285-.202-1.545-.607s-.4-.952-.4-1.646v-6.063h3.812v-2.946H180.7v-4.014h-3.465v4.014h-2.86v2.946h2.86zm-4.042-2.946h-3.465v7.566a5 5 0 0 1-.174 1.328c-.115.424-.303.8-.563 1.126s-.587.588-.982.78-.88.29-1.458.29c-.616 0-1.093-.14-1.43-.42s-.588-.625-.75-1.04-.265-.856-.303-1.328L164 27.444v-7.017h-3.465v8.75c0 .712.086 1.396.26 2.05a4.72 4.72 0 0 0 .866 1.747c.404.5.93.914 1.574 1.213s1.43.447 2.353.447c1.155 0 2.07-.255 2.744-.765s1.174-1.112 1.5-1.805h.058v2.224h3.292v-13.86zM146.3 26.492l3.205-8.316 3.148 8.316H146.3zm-7.162 7.797h4.072l1.848-4.678h8.865l1.906 4.678h4.16l-8.808-20.445h-3.147l-8.895 20.445zM25.362 22.173a2.71 2.71 0 0 0-3.034-2.688 2.72 2.72 0 0 0-2.348 2.262c-.18 1.186.41 2.253 1.343 2.782l-.857 4.33a.46.46 0 0 0 .45.548h3.478a.46.46 0 0 0 .45-.548l-.858-4.33c.82-.465 1.376-1.345 1.376-2.356h0zM3.84 31.1c-1.804 0-3.266 1.463-3.266 3.267s1.462 3.267 3.266 3.267a3.27 3.27 0 0 0 3.267-3.267A3.27 3.27 0 0 0 3.839 31.1h0zm37.63 0c-1.804 0-3.266 1.463-3.266 3.267s1.462 3.267 3.266 3.267a3.27 3.27 0 0 0 3.267-3.267A3.27 3.27 0 0 0 41.47 31.1h0zM25.92 3.267c0 1.805-1.462 3.267-3.266 3.267a3.27 3.27 0 0 1-3.267-3.267C19.388 1.463 20.85 0 22.655 0s3.266 1.462 3.266 3.266h0z" fill="#f58320"/><path d="M125.133 20.428h3.292v2.224h.058c.327-.693.827-1.295 1.5-1.805s1.588-.765 2.744-.765c.924 0 1.708.154 2.353.46s1.17.713 1.574 1.213a4.6 4.6 0 0 1 .866 1.733 7.95 7.95 0 0 1 .26 2.05v8.75h-3.465v-7.017l-.058-1.285a4.66 4.66 0 0 0-.303-1.329c-.164-.413-.42-.76-.765-1.04s-.82-.42-1.415-.42c-.578 0-1.064.097-1.46.29s-.722.452-.98.78-.448.703-.563 1.126-.174.866-.174 1.328v7.566h-3.465v-13.86zm-13.456 6.93c0 .54.09 1.06.274 1.56s.452.943.81 1.328a4.02 4.02 0 0 0 1.285.924c.5.23 1.068.347 1.703.347s1.203-.116 1.704-.347a4.02 4.02 0 0 0 1.285-.924 3.91 3.91 0 0 0 .809-1.328 4.53 4.53 0 0 0 .274-1.56c0-.538-.092-1.058-.274-1.56a3.92 3.92 0 0 0-.809-1.328 4.02 4.02 0 0 0-1.285-.924c-.5-.23-1.068-.347-1.704-.347s-1.203.116-1.703.347a4.02 4.02 0 0 0-1.285.924c-.357.385-.626.828-.81 1.328a4.51 4.51 0 0 0-.274 1.559h0zm-3.465 0c0-1.097.197-2.093.592-2.988s.928-1.66 1.602-2.296a7.08 7.08 0 0 1 2.397-1.473 8.33 8.33 0 0 1 2.945-.519c1.04 0 2.022.173 2.946.52a7.08 7.08 0 0 1 2.397 1.473c.673.635 1.208 1.4 1.602 2.296s.592 1.89.592 2.988-.197 2.094-.592 2.99-.93 1.66-1.602 2.296a7.08 7.08 0 0 1-2.397 1.473c-.924.346-1.906.52-2.946.52a8.33 8.33 0 0 1-2.945-.52 7.08 7.08 0 0 1-2.397-1.473c-.674-.635-1.208-1.4-1.602-2.296s-.592-1.89-.592-2.99h0zm-5.4 6.93h3.465v-13.86h-3.465v13.86zm-.49-18.568c0-.558.207-1.044.62-1.458s.94-.62 1.574-.62 1.17.198 1.602.592.65.89.65 1.487-.217 1.093-.65 1.487-.967.592-1.602.592-1.16-.206-1.574-.62-.62-.9-.62-1.458h0zm-4.244 8.548c-.674-.943-1.58-1.415-2.715-1.415-.462 0-.914.115-1.357.346s-.664.607-.664 1.126a.97.97 0 0 0 .549.925c.365.192.827.356 1.386.5l1.804.42c.645.144 1.247.366 1.805.664a3.96 3.96 0 0 1 1.386 1.228c.366.52.55 1.232.55 2.136 0 .828-.178 1.526-.534 2.094s-.82 1.025-1.386 1.372-1.21.597-1.92.75a10.09 10.09 0 0 1-2.137.232c-1.078 0-2.07-.155-2.974-.463s-1.714-.866-2.425-1.674l2.3-2.166c.442.5.92.91 1.43 1.227s1.13.476 1.863.476a3.7 3.7 0 0 0 .779-.086 2.54 2.54 0 0 0 .751-.289c.23-.134.42-.303.563-.505a1.19 1.19 0 0 0 .217-.708c0-.48-.183-.837-.55-1.068s-.828-.42-1.386-.563l-1.805-.405a7 7 0 0 1-1.805-.606 3.79 3.79 0 0 1-1.386-1.17c-.366-.5-.548-1.193-.548-2.08 0-.77.16-1.438.476-2.007s.736-1.034 1.256-1.4 1.117-.635 1.79-.81 1.357-.26 2.05-.26a8.22 8.22 0 0 1 2.743.476 4.49 4.49 0 0 1 2.195 1.631l-2.3 2.08zM87.364 34.29h-3.292v-2.224h-.058c-.328.693-.828 1.295-1.502 1.805s-1.588.766-2.743.766c-.924 0-1.71-.15-2.354-.448s-1.17-.703-1.573-1.213-.693-1.092-.866-1.747-.26-1.338-.26-2.05v-8.75h3.465v7.017l.058 1.285c.038.472.14.915.303 1.328s.414.76.75 1.04.813.42 1.43.42c.578 0 1.063-.096 1.458-.29s.722-.452.982-.78.448-.702.563-1.126a5 5 0 0 0 .173-1.328v-7.566h3.466v13.86zM60.307 13.844h13.196v3.292h-9.558v5.37h9v3.292h-9v8.5h-3.638V13.844zM17.904 5.11a19.81 19.81 0 0 0-4.542 1.713c-6.444 3.4-10.257 9.84-10.604 16.633a1.38 1.38 0 0 1-1.253 1.309c-.845.076-1.546-.62-1.503-1.467.396-7.725 4.737-15.05 12.08-18.91a22.56 22.56 0 0 1 5.561-2.047c-.055.3-.088.6-.088.926 0 .65.127 1.272.35 1.844h0zm14.868 2.2a1.38 1.38 0 0 1-.575-1.718c.326-.783 1.268-1.08 1.998-.647C40.848 8.89 45.3 16.14 45.3 24.438c0 2.028-.27 3.993-.773 5.863a5.06 5.06 0 0 0-2.586-1.01 19.77 19.77 0 0 0 .607-4.853c0-7.282-3.934-13.66-9.786-17.128h0zm1.817 36.382a22.53 22.53 0 0 1-11.934 3.401c-6.872 0-13.02-3.068-17.173-7.9a5.11 5.11 0 0 0 2.289-1.578c3.647 4.118 8.963 6.725 14.884 6.725a19.77 19.77 0 0 0 10.487-2.999 1.38 1.38 0 0 1 1.77.256c.568.647.408 1.64-.323 2.095h0zm-11.934-9.757a9.51 9.51 0 0 1-9.497-9.497 9.51 9.51 0 0 1 9.497-9.498 9.51 9.51 0 0 1 9.498 9.498 9.51 9.51 0 0 1-9.498 9.497h0zm0-21.747c-6.765 0-12.25 5.484-12.25 12.25s5.485 12.25 12.25 12.25 12.25-5.485 12.25-12.25a12.25 12.25 0 0 0-12.25-12.25h0z" fill="#3e4e50"/></svg>